<mxfile host="app.diagrams.net" modified="2022-01-20T17:18:31.842Z" agent="5.0 (Macintosh; Intel Mac OS X 10_15_7) AppleWebKit/605.1.15 (KHTML, like Gecko) Version/15.2 Safari/605.1.15" etag="bnfhJUFN1fhzQZHB9Gd8" version="16.4.3" type="github">
  <diagram id="2CpviFpsAhP7GC_aui2c" name="Page-1">
    <mxGraphModel dx="1454" dy="798" grid="1" gridSize="10" guides="1" tooltips="1" connect="1" arrows="1" fold="1" page="1" pageScale="1" pageWidth="827" pageHeight="1169" math="0" shadow="0">
      <root>
        <mxCell id="0" />
        <mxCell id="1" parent="0" />
        <mxCell id="Eosyk9RFr-M7ZK3zL_iW-1" value="Vehicle ComputerÂ " style="swimlane;horizontal=0;" vertex="1" parent="1">
          <mxGeometry x="70" y="40" width="450" height="260" as="geometry" />
        </mxCell>
        <mxCell id="Eosyk9RFr-M7ZK3zL_iW-27" style="edgeStyle=orthogonalEdgeStyle;rounded=0;orthogonalLoop=1;jettySize=auto;html=1;exitX=0.5;exitY=0;exitDx=0;exitDy=0;entryX=0.25;entryY=1;entryDx=0;entryDy=0;fontColor=#000000;startArrow=classic;startFill=1;endArrow=classic;endFill=1;strokeColor=#000000;" edge="1" parent="Eosyk9RFr-M7ZK3zL_iW-1" source="Eosyk9RFr-M7ZK3zL_iW-22" target="Eosyk9RFr-M7ZK3zL_iW-45">
          <mxGeometry relative="1" as="geometry">
            <mxPoint x="158" y="120" as="targetPoint" />
            <Array as="points">
              <mxPoint x="85" y="160" />
              <mxPoint x="198" y="160" />
            </Array>
          </mxGeometry>
        </mxCell>
        <mxCell id="Eosyk9RFr-M7ZK3zL_iW-22" value="DBC Feeder" style="rounded=0;whiteSpace=wrap;html=1;fontColor=#000000;" vertex="1" parent="Eosyk9RFr-M7ZK3zL_iW-1">
          <mxGeometry x="40" y="220" width="90" height="40" as="geometry" />
        </mxCell>
        <mxCell id="Eosyk9RFr-M7ZK3zL_iW-23" value="" style="group" vertex="1" connectable="0" parent="Eosyk9RFr-M7ZK3zL_iW-1">
          <mxGeometry x="90" y="160" width="70" height="30" as="geometry" />
        </mxCell>
        <mxCell id="Eosyk9RFr-M7ZK3zL_iW-24" value="" style="image;html=1;image=img/lib/clip_art/general/Keys_128x128.png;fontColor=#000000;" vertex="1" parent="Eosyk9RFr-M7ZK3zL_iW-23">
          <mxGeometry width="30" height="30" as="geometry" />
        </mxCell>
        <mxCell id="Eosyk9RFr-M7ZK3zL_iW-25" value="&lt;font style=&quot;font-size: 11px&quot;&gt;TLS&lt;br&gt;&lt;/font&gt;&lt;div style=&quot;text-align: left ; font-size: 11px&quot;&gt;&lt;font style=&quot;font-size: 11px&quot;&gt;JWT&lt;/font&gt;&lt;/div&gt;" style="text;html=1;align=center;verticalAlign=middle;resizable=0;points=[];autosize=1;strokeColor=none;fillColor=none;fontColor=#000000;" vertex="1" parent="Eosyk9RFr-M7ZK3zL_iW-23">
          <mxGeometry x="30" width="40" height="30" as="geometry" />
        </mxCell>
        <mxCell id="Eosyk9RFr-M7ZK3zL_iW-26" value="&lt;font color=&quot;#0000ff&quot;&gt;VISS&lt;/font&gt;" style="text;html=1;align=center;verticalAlign=middle;resizable=0;points=[];autosize=1;strokeColor=none;fillColor=none;" vertex="1" parent="Eosyk9RFr-M7ZK3zL_iW-1">
          <mxGeometry x="90" y="140" width="40" height="20" as="geometry" />
        </mxCell>
        <mxCell id="Eosyk9RFr-M7ZK3zL_iW-33" style="edgeStyle=orthogonalEdgeStyle;rounded=0;orthogonalLoop=1;jettySize=auto;html=1;exitX=0.75;exitY=0;exitDx=0;exitDy=0;entryX=0.5;entryY=1;entryDx=0;entryDy=0;fontColor=#FF0000;startArrow=classic;startFill=1;endArrow=classic;endFill=1;strokeColor=#000000;" edge="1" parent="Eosyk9RFr-M7ZK3zL_iW-1" source="Eosyk9RFr-M7ZK3zL_iW-31" target="Eosyk9RFr-M7ZK3zL_iW-45">
          <mxGeometry relative="1" as="geometry">
            <mxPoint x="208" y="120" as="targetPoint" />
            <Array as="points">
              <mxPoint x="208" y="160" />
              <mxPoint x="275" y="160" />
            </Array>
          </mxGeometry>
        </mxCell>
        <mxCell id="Eosyk9RFr-M7ZK3zL_iW-31" value="SomeIP Feeder" style="rounded=0;whiteSpace=wrap;html=1;fontColor=#000000;" vertex="1" parent="Eosyk9RFr-M7ZK3zL_iW-1">
          <mxGeometry x="140" y="220" width="90" height="40" as="geometry" />
        </mxCell>
        <mxCell id="Eosyk9RFr-M7ZK3zL_iW-34" value="" style="group" vertex="1" connectable="0" parent="Eosyk9RFr-M7ZK3zL_iW-1">
          <mxGeometry x="210" y="160" width="70" height="30" as="geometry" />
        </mxCell>
        <mxCell id="Eosyk9RFr-M7ZK3zL_iW-35" value="" style="image;html=1;image=img/lib/clip_art/general/Keys_128x128.png;fontColor=#000000;" vertex="1" parent="Eosyk9RFr-M7ZK3zL_iW-34">
          <mxGeometry width="30" height="30" as="geometry" />
        </mxCell>
        <mxCell id="Eosyk9RFr-M7ZK3zL_iW-36" value="&lt;font style=&quot;font-size: 11px&quot;&gt;TLS&lt;br&gt;&lt;/font&gt;&lt;div style=&quot;text-align: left ; font-size: 11px&quot;&gt;&lt;font style=&quot;font-size: 11px&quot;&gt;JWT&lt;/font&gt;&lt;/div&gt;" style="text;html=1;align=center;verticalAlign=middle;resizable=0;points=[];autosize=1;strokeColor=none;fillColor=none;fontColor=#000000;" vertex="1" parent="Eosyk9RFr-M7ZK3zL_iW-34">
          <mxGeometry x="30" width="40" height="30" as="geometry" />
        </mxCell>
        <mxCell id="Eosyk9RFr-M7ZK3zL_iW-37" value="&lt;font color=&quot;#0000ff&quot;&gt;VISS&lt;/font&gt;" style="text;html=1;align=center;verticalAlign=middle;resizable=0;points=[];autosize=1;strokeColor=none;fillColor=none;" vertex="1" parent="Eosyk9RFr-M7ZK3zL_iW-1">
          <mxGeometry x="210" y="140" width="40" height="20" as="geometry" />
        </mxCell>
        <mxCell id="Eosyk9RFr-M7ZK3zL_iW-47" value="" style="group" vertex="1" connectable="0" parent="Eosyk9RFr-M7ZK3zL_iW-1">
          <mxGeometry x="120" y="20" width="310" height="80" as="geometry" />
        </mxCell>
        <mxCell id="Eosyk9RFr-M7ZK3zL_iW-45" value="&lt;font color=&quot;#000000&quot;&gt;KUKSA.val server&lt;br&gt;&lt;br&gt;&lt;/font&gt;" style="rounded=0;whiteSpace=wrap;html=1;fontColor=#FF0000;" vertex="1" parent="Eosyk9RFr-M7ZK3zL_iW-47">
          <mxGeometry width="310" height="80" as="geometry" />
        </mxCell>
        <mxCell id="Eosyk9RFr-M7ZK3zL_iW-46" value="&lt;font color=&quot;#ff0000&quot;&gt;&lt;b&gt;VSS model&lt;/b&gt;&lt;/font&gt;" style="text;html=1;align=center;verticalAlign=middle;resizable=0;points=[];autosize=1;strokeColor=none;fillColor=none;fontColor=#0000FF;" vertex="1" parent="Eosyk9RFr-M7ZK3zL_iW-47">
          <mxGeometry x="114.99666666666667" y="50" width="80" height="20" as="geometry" />
        </mxCell>
        <mxCell id="Eosyk9RFr-M7ZK3zL_iW-48" value="Adaptive AutoSAR&lt;br&gt;subsystem" style="rounded=0;whiteSpace=wrap;html=1;fontColor=#000000;" vertex="1" parent="Eosyk9RFr-M7ZK3zL_iW-1">
          <mxGeometry x="300" y="200" width="120" height="60" as="geometry" />
        </mxCell>
        <mxCell id="Eosyk9RFr-M7ZK3zL_iW-50" style="edgeStyle=orthogonalEdgeStyle;rounded=0;orthogonalLoop=1;jettySize=auto;html=1;exitX=0.5;exitY=0;exitDx=0;exitDy=0;entryX=0.677;entryY=1.038;entryDx=0;entryDy=0;fontColor=#000000;startArrow=classic;startFill=1;endArrow=classic;endFill=1;strokeColor=#000000;entryPerimeter=0;" edge="1" parent="Eosyk9RFr-M7ZK3zL_iW-1" source="Eosyk9RFr-M7ZK3zL_iW-49" target="Eosyk9RFr-M7ZK3zL_iW-45">
          <mxGeometry relative="1" as="geometry" />
        </mxCell>
        <mxCell id="Eosyk9RFr-M7ZK3zL_iW-49" value="ara::com Feeder" style="rounded=0;whiteSpace=wrap;html=1;fontColor=#000000;" vertex="1" parent="Eosyk9RFr-M7ZK3zL_iW-1">
          <mxGeometry x="300" y="160" width="90" height="40" as="geometry" />
        </mxCell>
        <mxCell id="Eosyk9RFr-M7ZK3zL_iW-41" value="" style="group" vertex="1" connectable="0" parent="Eosyk9RFr-M7ZK3zL_iW-1">
          <mxGeometry x="350" y="130" width="70" height="30" as="geometry" />
        </mxCell>
        <mxCell id="Eosyk9RFr-M7ZK3zL_iW-42" value="" style="image;html=1;image=img/lib/clip_art/general/Keys_128x128.png;fontColor=#000000;" vertex="1" parent="Eosyk9RFr-M7ZK3zL_iW-41">
          <mxGeometry width="30" height="30" as="geometry" />
        </mxCell>
        <mxCell id="Eosyk9RFr-M7ZK3zL_iW-43" value="&lt;font style=&quot;font-size: 11px&quot;&gt;TLS&lt;br&gt;&lt;/font&gt;&lt;div style=&quot;text-align: left ; font-size: 11px&quot;&gt;&lt;font style=&quot;font-size: 11px&quot;&gt;JWT&lt;/font&gt;&lt;/div&gt;" style="text;html=1;align=center;verticalAlign=middle;resizable=0;points=[];autosize=1;strokeColor=none;fillColor=none;fontColor=#000000;" vertex="1" parent="Eosyk9RFr-M7ZK3zL_iW-41">
          <mxGeometry x="30" width="40" height="30" as="geometry" />
        </mxCell>
        <mxCell id="Eosyk9RFr-M7ZK3zL_iW-51" value="&lt;font color=&quot;#0000ff&quot;&gt;VISS&lt;/font&gt;" style="text;html=1;align=center;verticalAlign=middle;resizable=0;points=[];autosize=1;strokeColor=none;fillColor=none;" vertex="1" parent="Eosyk9RFr-M7ZK3zL_iW-41">
          <mxGeometry y="-20" width="40" height="20" as="geometry" />
        </mxCell>
        <mxCell id="Eosyk9RFr-M7ZK3zL_iW-19" style="edgeStyle=orthogonalEdgeStyle;rounded=0;orthogonalLoop=1;jettySize=auto;html=1;exitX=0.5;exitY=0;exitDx=0;exitDy=0;endArrow=classic;endFill=1;startArrow=classic;startFill=1;fillColor=#d5e8d4;strokeColor=#006600;" edge="1" parent="1" source="Eosyk9RFr-M7ZK3zL_iW-9" target="Eosyk9RFr-M7ZK3zL_iW-22">
          <mxGeometry relative="1" as="geometry" />
        </mxCell>
        <mxCell id="Eosyk9RFr-M7ZK3zL_iW-9" value="ECU 1" style="swimlane;horizontal=0;" vertex="1" parent="1">
          <mxGeometry x="70" y="400" width="120" height="100" as="geometry" />
        </mxCell>
        <mxCell id="Eosyk9RFr-M7ZK3zL_iW-20" value="&lt;font color=&quot;#006633&quot;&gt;CAN&lt;/font&gt;" style="text;html=1;align=center;verticalAlign=middle;resizable=0;points=[];autosize=1;strokeColor=none;fillColor=none;" vertex="1" parent="1">
          <mxGeometry x="140" y="350" width="40" height="20" as="geometry" />
        </mxCell>
        <mxCell id="Eosyk9RFr-M7ZK3zL_iW-29" style="edgeStyle=orthogonalEdgeStyle;rounded=0;orthogonalLoop=1;jettySize=auto;html=1;exitX=0.5;exitY=0;exitDx=0;exitDy=0;fontColor=#000000;startArrow=classic;startFill=1;endArrow=classic;endFill=1;strokeColor=#FF0000;entryX=0.5;entryY=1;entryDx=0;entryDy=0;" edge="1" parent="1" source="Eosyk9RFr-M7ZK3zL_iW-28" target="Eosyk9RFr-M7ZK3zL_iW-31">
          <mxGeometry relative="1" as="geometry">
            <mxPoint x="340" y="310" as="targetPoint" />
          </mxGeometry>
        </mxCell>
        <mxCell id="Eosyk9RFr-M7ZK3zL_iW-28" value="ECU 2" style="swimlane;horizontal=0;" vertex="1" parent="1">
          <mxGeometry x="235" y="400" width="120" height="100" as="geometry" />
        </mxCell>
        <mxCell id="Eosyk9RFr-M7ZK3zL_iW-30" value="&lt;font color=&quot;#ff0000&quot;&gt;Ethernet&lt;/font&gt;" style="text;html=1;align=center;verticalAlign=middle;resizable=0;points=[];autosize=1;strokeColor=none;fillColor=none;fontColor=#000000;" vertex="1" parent="1">
          <mxGeometry x="290" y="350" width="60" height="20" as="geometry" />
        </mxCell>
        <mxCell id="Eosyk9RFr-M7ZK3zL_iW-52" style="edgeStyle=orthogonalEdgeStyle;rounded=0;orthogonalLoop=1;jettySize=auto;html=1;exitX=0.5;exitY=0;exitDx=0;exitDy=0;entryX=1;entryY=0.5;entryDx=0;entryDy=0;fontColor=#000000;startArrow=classic;startFill=1;endArrow=classic;endFill=1;strokeColor=#000000;elbow=vertical;" edge="1" parent="1" source="Eosyk9RFr-M7ZK3zL_iW-38" target="Eosyk9RFr-M7ZK3zL_iW-45">
          <mxGeometry relative="1" as="geometry">
            <Array as="points">
              <mxPoint x="460" y="310" />
              <mxPoint x="610" y="310" />
              <mxPoint x="610" y="100" />
            </Array>
          </mxGeometry>
        </mxCell>
        <mxCell id="Eosyk9RFr-M7ZK3zL_iW-38" value="VCU" style="swimlane;horizontal=0;" vertex="1" parent="1">
          <mxGeometry x="400" y="400" width="120" height="100" as="geometry" />
        </mxCell>
        <mxCell id="Eosyk9RFr-M7ZK3zL_iW-40" value="&lt;font color=&quot;#ff0000&quot;&gt;Ethernet&lt;/font&gt;" style="text;html=1;align=center;verticalAlign=middle;resizable=0;points=[];autosize=1;strokeColor=none;fillColor=none;fontColor=#000000;" vertex="1" parent="1">
          <mxGeometry x="470" y="350" width="60" height="20" as="geometry" />
        </mxCell>
        <mxCell id="Eosyk9RFr-M7ZK3zL_iW-53" value="" style="group" vertex="1" connectable="0" parent="1">
          <mxGeometry x="540" y="180" width="70" height="30" as="geometry" />
        </mxCell>
        <mxCell id="Eosyk9RFr-M7ZK3zL_iW-54" value="" style="image;html=1;image=img/lib/clip_art/general/Keys_128x128.png;fontColor=#000000;" vertex="1" parent="Eosyk9RFr-M7ZK3zL_iW-53">
          <mxGeometry width="30" height="30" as="geometry" />
        </mxCell>
        <mxCell id="Eosyk9RFr-M7ZK3zL_iW-55" value="&lt;font style=&quot;font-size: 11px&quot;&gt;TLS&lt;br&gt;&lt;/font&gt;&lt;div style=&quot;text-align: left ; font-size: 11px&quot;&gt;&lt;font style=&quot;font-size: 11px&quot;&gt;JWT&lt;/font&gt;&lt;/div&gt;" style="text;html=1;align=center;verticalAlign=middle;resizable=0;points=[];autosize=1;strokeColor=none;fillColor=none;fontColor=#000000;" vertex="1" parent="Eosyk9RFr-M7ZK3zL_iW-53">
          <mxGeometry x="30" width="40" height="30" as="geometry" />
        </mxCell>
        <mxCell id="Eosyk9RFr-M7ZK3zL_iW-56" value="&lt;font color=&quot;#0000ff&quot;&gt;VISS&lt;/font&gt;" style="text;html=1;align=center;verticalAlign=middle;resizable=0;points=[];autosize=1;strokeColor=none;fillColor=none;" vertex="1" parent="Eosyk9RFr-M7ZK3zL_iW-53">
          <mxGeometry y="-20" width="40" height="20" as="geometry" />
        </mxCell>
      </root>
    </mxGraphModel>
  </diagram>
</mxfile>
